<?xml version="1.0" encoding="us-ascii" standalone="no"?><svg xmlns="http://www.w3.org/2000/svg" xmlns:xlink="http://www.w3.org/1999/xlink" contentStyleType="text/css" height="565px" preserveAspectRatio="none" style="width:444px;height:565px;background:#FFFFFF;" version="1.1" viewBox="0 0 444 565" width="444px" zoomAndPan="magnify"><defs/><g><ellipse cx="336.44" cy="16" fill="#222222" rx="10" ry="10" style="stroke:#222222;stroke-width:1.0;"/><g id="Setup"><rect fill="#F1F1F1" height="67.7969" rx="12.5" ry="12.5" style="stroke:#181818;stroke-width:0.5;" width="123" x="274.94" y="87"/><line style="stroke:#181818;stroke-width:0.5;" x1="274.94" x2="397.94" y1="114.6094" y2="114.6094"/><text fill="#000000" font-family="sans-serif" font-size="14" lengthAdjust="spacing" textLength="37" x="317.94" y="106.5332">Setup</text><text fill="#000000" font-family="sans-serif" font-size="12" lengthAdjust="spacing" textLength="103" x="279.94" y="132.0664">Clear privieus data</text><text fill="#000000" font-family="sans-serif" font-size="12" lengthAdjust="spacing" textLength="93" x="279.94" y="147.1602">setup a new field</text></g><g id="GetUserInput"><rect fill="#F1F1F1" height="52.7031" rx="12.5" ry="12.5" style="stroke:#181818;stroke-width:0.5;" width="117" x="189.94" y="216"/><line style="stroke:#181818;stroke-width:0.5;" x1="189.94" x2="306.94" y1="243.6094" y2="243.6094"/><text fill="#000000" font-family="sans-serif" font-size="14" lengthAdjust="spacing" textLength="83" x="206.94" y="235.5332">GetUserInput</text><text fill="#000000" font-family="sans-serif" font-size="12" lengthAdjust="spacing" textLength="97" x="194.94" y="261.0664">wait for user input</text></g><g id="UpdateField"><rect fill="#F1F1F1" height="67.7969" rx="12.5" ry="12.5" style="stroke:#181818;stroke-width:0.5;" width="129" x="183.94" y="363"/><line style="stroke:#181818;stroke-width:0.5;" x1="183.94" x2="312.94" y1="390.6094" y2="390.6094"/><text fill="#000000" font-family="sans-serif" font-size="14" lengthAdjust="spacing" textLength="76" x="210.44" y="382.5332">UpdateField</text><text fill="#000000" font-family="sans-serif" font-size="12" lengthAdjust="spacing" textLength="86" x="188.94" y="408.0664">Update the field</text><text fill="#000000" font-family="sans-serif" font-size="12" lengthAdjust="spacing" textLength="109" x="188.94" y="423.1602">using the user input</text></g><g id="GameOver"><rect fill="#F1F1F1" height="50" rx="12.5" ry="12.5" style="stroke:#181818;stroke-width:0.5;" width="89" x="292.94" y="509"/><line style="stroke:#181818;stroke-width:0.5;" x1="292.94" x2="381.94" y1="536.6094" y2="536.6094"/><text fill="#000000" font-family="sans-serif" font-size="14" lengthAdjust="spacing" textLength="69" x="302.94" y="528.5332">GameOver</text></g><!--link *start* to Setup--><g id="link_*start*_Setup"><path d="M336.44,26.14 C336.44,39.63 336.44,59.56 336.44,80.76 " fill="none" id="*start*-to-Setup" style="stroke:#181818;stroke-width:1.0;"/><polygon fill="#181818" points="336.44,86.76,340.44,77.76,336.44,81.76,332.44,77.76,336.44,86.76" style="stroke:#181818;stroke-width:1.0;"/></g><!--link Setup to GetUserInput--><g id="link_Setup_GetUserInput"><path d="M311.93,155.29 C297.79,174.49 283.8462,193.4175 270.8062,211.1375 " fill="none" id="Setup-to-GetUserInput" style="stroke:#181818;stroke-width:1.0;"/><polygon fill="#181818" points="267.25,215.97,275.806,211.092,270.2135,211.9429,269.3626,206.3504,267.25,215.97" style="stroke:#181818;stroke-width:1.0;"/></g><!--link GetUserInput to UpdateField--><g id="link_GetUserInput_UpdateField"><path d="M189.71,251.67 C136.5,260.41 63.84,276.19 46.44,299 C6,352.06 104.467,376.666 177.797,387.716 " fill="none" id="GetUserInput-to-UpdateField" style="stroke:#181818;stroke-width:1.0;"/><polygon fill="#181818" points="183.73,388.61,175.4265,383.3136,178.7858,387.865,174.2344,391.2243,183.73,388.61" style="stroke:#181818;stroke-width:1.0;"/><text fill="#000000" font-family="sans-serif" font-size="13" lengthAdjust="spacing" textLength="157" x="47.44" y="321.4951">User has given a command</text></g><!--link UpdateField to GetUserInput--><g id="link_UpdateField_GetUserInput"><path d="M246.47,362.78 C245.59,344.05 244.87,320.22 245.44,299 C245.71,289.26 245.8848,284.5501 246.4248,275.1801 " fill="none" id="UpdateField-to-GetUserInput" style="stroke:#181818;stroke-width:1.0;"/><polygon fill="#181818" points="246.77,269.19,242.2588,277.945,246.4823,274.1817,250.2456,278.4052,246.77,269.19" style="stroke:#181818;stroke-width:1.0;"/><text fill="#000000" font-family="sans-serif" font-size="13" lengthAdjust="spacing" textLength="152" x="246.44" y="313.4951">User command processed</text><text fill="#000000" font-family="sans-serif" font-size="13" lengthAdjust="spacing" textLength="98" x="273.44" y="329.8467">and can still play</text></g><!--link UpdateField to GameOver--><g id="link_UpdateField_GameOver"><path d="M254.76,431.38 C258.74,446.76 264.96,464.73 274.44,479 C281.86,490.16 287.5825,496.5087 297.7425,504.9387 " fill="none" id="UpdateField-to-GameOver" style="stroke:#181818;stroke-width:1.0;"/><polygon fill="#181818" points="302.36,508.77,297.9879,499.9448,298.5121,505.5773,292.8796,506.1014,302.36,508.77" style="stroke:#181818;stroke-width:1.0;"/><text fill="#000000" font-family="sans-serif" font-size="13" lengthAdjust="spacing" textLength="123" x="275.44" y="475.4951">Game over is triggerd</text></g><!--link GameOver to Setup--><g id="link_GameOver_Setup"><path d="M378.2,508.97 C388.32,500.83 397.87,490.77 403.44,479 C437.7,406.71 417.84,377.69 403.44,299 C393.9,246.8 372.305,195.4393 355.765,160.6293 " fill="none" id="GameOver-to-Setup" style="stroke:#181818;stroke-width:1.0;"/><polygon fill="#181818" points="353.19,155.21,353.4396,165.0557,355.3358,159.7261,360.6654,161.6224,353.19,155.21" style="stroke:#181818;stroke-width:1.0;"/></g><!--SRC=[RL0nRiCm3DprYfiBv0CQkXHeqAb3aQdkGDYCGq2M1L5oaD_7OeB6ARe8FF9uf-FtomzskrTySQd9sMjup-MWd3zYgiLjWKqFQQ32xy9XW4URuKIAKHQE8FJpD54St9PceZJnvxAIVQimjr8K9SiuSlw7l_NrPdENHifppweyTB71dYAqI0X8WIxkr-WHxPRDuoqmvNLT5k6gM0sfYsgv2P7FE3PxzvpPuqnIS9mpQlk5s5dSdpCOGZdnJQEBLIMErjXiNG40]--></g></svg>