<?xml version="1.0" encoding="us-ascii" standalone="no"?><svg xmlns="http://www.w3.org/2000/svg" xmlns:xlink="http://www.w3.org/1999/xlink" contentStyleType="text/css" height="485px" preserveAspectRatio="none" style="width:562px;height:485px;background:#FFFFFF;" version="1.1" viewBox="0 0 562 485" width="562px" zoomAndPan="magnify"><defs/><g><!--class Main--><g id="elem_Main"><rect codeLine="7" fill="#FFFF00" height="43.6094" id="Main" rx="2.5" ry="2.5" style="stroke:#181818;stroke-width:0.5;" width="36" x="165.5" y="7"/><text fill="#000000" font-family="sans-serif" font-size="14" lengthAdjust="spacing" textLength="30" x="168.5" y="26.5332">Main</text><line style="stroke:#181818;stroke-width:0.5;" x1="166.5" x2="200.5" y1="34.6094" y2="34.6094"/><line style="stroke:#181818;stroke-width:0.5;" x1="166.5" x2="200.5" y1="42.6094" y2="42.6094"/></g><!--class Setup--><g id="elem_Setup"><rect codeLine="11" fill="#00FF00" height="43.6094" id="Setup" rx="2.5" ry="2.5" style="stroke:#181818;stroke-width:0.5;" width="43" x="7" y="111"/><text fill="#000000" font-family="sans-serif" font-size="14" lengthAdjust="spacing" textLength="37" x="10" y="130.5332">Setup</text><line style="stroke:#181818;stroke-width:0.5;" x1="8" x2="49" y1="138.6094" y2="138.6094"/><line style="stroke:#181818;stroke-width:0.5;" x1="8" x2="49" y1="146.6094" y2="146.6094"/></g><!--class GetUserInput--><g id="elem_GetUserInput"><rect codeLine="15" fill="#00FF00" height="43.6094" id="GetUserInput" rx="2.5" ry="2.5" style="stroke:#181818;stroke-width:0.5;" width="89" x="313" y="111"/><text fill="#000000" font-family="sans-serif" font-size="14" lengthAdjust="spacing" textLength="83" x="316" y="130.5332">GetUserInput</text><line style="stroke:#181818;stroke-width:0.5;" x1="314" x2="401" y1="138.6094" y2="138.6094"/><line style="stroke:#181818;stroke-width:0.5;" x1="314" x2="401" y1="146.6094" y2="146.6094"/></g><!--class UpdateField--><g id="elem_UpdateField"><rect codeLine="19" fill="#00FF00" height="43.6094" id="UpdateField" rx="2.5" ry="2.5" style="stroke:#181818;stroke-width:0.5;" width="82" x="85.5" y="111"/><text fill="#000000" font-family="sans-serif" font-size="14" lengthAdjust="spacing" textLength="76" x="88.5" y="130.5332">UpdateField</text><line style="stroke:#181818;stroke-width:0.5;" x1="86.5" x2="166.5" y1="138.6094" y2="138.6094"/><line style="stroke:#181818;stroke-width:0.5;" x1="86.5" x2="166.5" y1="146.6094" y2="146.6094"/></g><!--class GameOver--><g id="elem_GameOver"><rect codeLine="23" fill="#00FF00" height="43.6094" id="GameOver" rx="2.5" ry="2.5" style="stroke:#181818;stroke-width:0.5;" width="75" x="203" y="111"/><text fill="#000000" font-family="sans-serif" font-size="14" lengthAdjust="spacing" textLength="69" x="206" y="130.5332">GameOver</text><line style="stroke:#181818;stroke-width:0.5;" x1="204" x2="277" y1="138.6094" y2="138.6094"/><line style="stroke:#181818;stroke-width:0.5;" x1="204" x2="277" y1="146.6094" y2="146.6094"/></g><!--class Field--><g id="elem_Field"><rect codeLine="27" fill="#FFFF00" height="43.6094" id="Field" rx="2.5" ry="2.5" style="stroke:#181818;stroke-width:0.5;" width="37" x="108" y="215"/><text fill="#000000" font-family="sans-serif" font-size="14" lengthAdjust="spacing" textLength="31" x="111" y="234.5332">Field</text><line style="stroke:#181818;stroke-width:0.5;" x1="109" x2="144" y1="242.6094" y2="242.6094"/><line style="stroke:#181818;stroke-width:0.5;" x1="109" x2="144" y1="250.6094" y2="250.6094"/></g><!--class Tile--><g id="elem_Tile"><rect codeLine="31" fill="#FFFF00" height="43.6094" id="Tile" rx="2.5" ry="2.5" style="stroke:#181818;stroke-width:0.5;" width="29" x="66" y="319"/><text fill="#000000" font-family="sans-serif" font-size="14" lengthAdjust="spacing" textLength="23" x="69" y="338.5332">Tile</text><line style="stroke:#181818;stroke-width:0.5;" x1="67" x2="94" y1="346.6094" y2="346.6094"/><line style="stroke:#181818;stroke-width:0.5;" x1="67" x2="94" y1="354.6094" y2="354.6094"/></g><!--class GetMouseButton--><g id="elem_GetMouseButton"><rect codeLine="36" fill="#ADD8E6" height="43.6094" id="GetMouseButton" rx="2.5" ry="2.5" style="stroke:#181818;stroke-width:0.5;" width="113" x="240" y="215"/><text fill="#000000" font-family="sans-serif" font-size="14" font-style="italic" lengthAdjust="spacing" textLength="107" x="243" y="234.5332">GetMouseButton</text><line style="stroke:#181818;stroke-width:0.5;" x1="241" x2="352" y1="242.6094" y2="242.6094"/><line style="stroke:#181818;stroke-width:0.5;" x1="241" x2="352" y1="250.6094" y2="250.6094"/></g><!--class GetKeyboardButtonPress--><g id="elem_GetKeyboardButtonPress"><rect codeLine="40" fill="#ADD8E6" height="43.6094" id="GetKeyboardButtonPress" rx="2.5" ry="2.5" style="stroke:#181818;stroke-width:0.5;" width="167" x="388" y="215"/><text fill="#000000" font-family="sans-serif" font-size="14" font-style="italic" lengthAdjust="spacing" textLength="161" x="391" y="234.5332">GetKeyboardButtonPress</text><line style="stroke:#181818;stroke-width:0.5;" x1="389" x2="554" y1="242.6094" y2="242.6094"/><line style="stroke:#181818;stroke-width:0.5;" x1="389" x2="554" y1="250.6094" y2="250.6094"/></g><!--class WindowTool--><g id="elem_WindowTool"><rect codeLine="45" fill="#ADD8E6" height="43.6094" id="WindowTool" rx="2.5" ry="2.5" style="stroke:#181818;stroke-width:0.5;" width="84" x="130.5" y="319"/><text fill="#000000" font-family="sans-serif" font-size="14" font-style="italic" lengthAdjust="spacing" textLength="78" x="133.5" y="338.5332">WindowTool</text><line style="stroke:#181818;stroke-width:0.5;" x1="131.5" x2="213.5" y1="346.6094" y2="346.6094"/><line style="stroke:#181818;stroke-width:0.5;" x1="131.5" x2="213.5" y1="354.6094" y2="354.6094"/></g><!--reverse link Main to Setup--><g id="link_Main_Setup"><path codeLine="49" d="M155.3963,48.4974 C126.7263,67.3674 80.97,97.47 50.19,117.73 " fill="none" id="Main-backto-Setup" style="stroke:#181818;stroke-width:1.0;"/><polygon fill="#181818" points="165.42,41.9,158.209,41.8575,155.3963,48.4974,162.6073,48.5399,165.42,41.9" style="stroke:#181818;stroke-width:1.0;"/></g><!--reverse link Main to GetUserInput--><g id="link_Main_GetUserInput"><path codeLine="50" d="M212.1411,46.7908 C240.4111,63.3708 284.91,89.45 321.37,110.82 " fill="none" id="Main-backto-GetUserInput" style="stroke:#181818;stroke-width:1.0;"/><polygon fill="#181818" points="201.79,40.72,204.942,47.2058,212.1411,46.7908,208.9892,40.305,201.79,40.72" style="stroke:#181818;stroke-width:1.0;"/></g><!--reverse link Main to UpdateField--><g id="link_Main_UpdateField"><path codeLine="51" d="M165.8384,61.6066 C156.0584,79.1166 148.07,93.39 138.3,110.89 " fill="none" id="Main-backto-UpdateField" style="stroke:#181818;stroke-width:1.0;"/><polygon fill="#181818" points="171.69,51.13,165.272,54.4178,165.8384,61.6066,172.2564,58.3188,171.69,51.13" style="stroke:#181818;stroke-width:1.0;"/></g><!--reverse link Main to GameOver--><g id="link_Main_GameOver"><path codeLine="52" d="M201.1616,61.6066 C210.9416,79.1166 218.93,93.39 228.7,110.89 " fill="none" id="Main-backto-GameOver" style="stroke:#181818;stroke-width:1.0;"/><polygon fill="#181818" points="195.31,51.13,194.7436,58.3188,201.1616,61.6066,201.728,54.4178,195.31,51.13" style="stroke:#181818;stroke-width:1.0;"/></g><!--reverse link Setup to Field--><g id="link_Setup_Field"><path codeLine="54" d="M57.1238,163.7834 C74.5038,181.8734 91,199.05 107.88,216.62 " fill="none" id="Setup-backto-Field" style="stroke:#181818;stroke-width:1.0;"/><polygon fill="none" points="48.81,155.13,50.0824,162.228,57.1238,163.7834,55.8513,156.6854,48.81,155.13" style="stroke:#181818;stroke-width:1.0;"/></g><!--reverse link UpdateField to Field--><g id="link_UpdateField_Field"><path codeLine="55" d="M126.5,167.13 C126.5,184.64 126.5,197.39 126.5,214.89 " fill="none" id="UpdateField-backto-Field" style="stroke:#181818;stroke-width:1.0;"/><polygon fill="none" points="126.5,155.13,122.5,161.13,126.5,167.13,130.5,161.13,126.5,155.13" style="stroke:#181818;stroke-width:1.0;"/></g><!--reverse link GameOver to Field--><g id="link_GameOver_Field"><path codeLine="56" d="M207.9388,163.1334 C186.6788,182.1634 164.79,201.74 145.2,219.27 " fill="none" id="GameOver-backto-Field" style="stroke:#181818;stroke-width:1.0;"/><polygon fill="none" points="216.88,155.13,209.7416,156.1513,207.9388,163.1334,215.0772,162.1121,216.88,155.13" style="stroke:#181818;stroke-width:1.0;"/></g><!--link GetUserInput to GetMouseButton--><g id="link_GetUserInput_GetMouseButton"><path codeLine="57" d="M344.86,155.13 C334.39,172.64 328.8314,181.9435 318.3614,199.4435 " fill="none" id="GetUserInput-to-GetMouseButton" style="stroke:#181818;stroke-width:1.0;stroke-dasharray:7.0,7.0;"/><polygon fill="none" points="309.12,214.89,323.5103,202.5239,313.2126,196.363,309.12,214.89" style="stroke:#181818;stroke-width:1.0;"/></g><!--link GetUserInput to GetKeyboardButtonPress--><g id="link_GetUserInput_GetKeyboardButtonPress"><path codeLine="58" d="M381.12,155.13 C400.69,172.64 414.9353,185.3881 434.4953,202.8881 " fill="none" id="GetUserInput-to-GetKeyboardButtonPress" style="stroke:#181818;stroke-width:1.0;stroke-dasharray:7.0,7.0;"/><polygon fill="none" points="447.91,214.89,438.4959,198.4165,430.4947,207.3597,447.91,214.89" style="stroke:#181818;stroke-width:1.0;"/></g><!--reverse link Field to Tile--><g id="link_Field_Tile"><path codeLine="60" d="M112.035,270.0683 C104.135,287.5783 97.91,301.39 90.02,318.89 " fill="none" id="Field-backto-Tile" style="stroke:#181818;stroke-width:1.0;"/><polygon fill="#181818" points="116.97,259.13,110.8564,262.9541,112.035,270.0683,118.1486,266.2441,116.97,259.13" style="stroke:#181818;stroke-width:1.0;"/></g><!--link Field to WindowTool--><g id="link_Field_WindowTool"><path codeLine="61" d="M136.03,259.13 C143.93,276.64 147.6917,284.9807 155.5817,302.4807 " fill="none" id="Field-to-WindowTool" style="stroke:#181818;stroke-width:1.0;stroke-dasharray:7.0,7.0;"/><polygon fill="none" points="162.98,318.89,161.0515,300.0146,150.112,304.9468,162.98,318.89" style="stroke:#181818;stroke-width:1.0;"/></g><rect fill="#DDDDDD" height="84.4375" id="_legend" rx="7.5" ry="7.5" style="stroke:#000000;stroke-width:1.0;" width="207" x="329" y="380.6094"/><text fill="#000000" font-family="sans-serif" font-size="14" lengthAdjust="spacing" textLength="34" x="334" y="402.1426">Color</text><text fill="#000000" font-family="sans-serif" font-size="14" lengthAdjust="spacing" textLength="32" x="372" y="402.1426">Type</text><rect fill="#FFFF00" height="17.6094" style="stroke:none;stroke-width:1.0;" width="34" x="334" y="405.2188"/><text fill="#000000" font-family="sans-serif" font-size="14" lengthAdjust="spacing" textLength="4" x="334" y="419.752">&#160;</text><text fill="#000000" font-family="sans-serif" font-size="14" lengthAdjust="spacing" textLength="86" x="372" y="419.752">Static classes</text><rect fill="#00FF00" height="17.6094" style="stroke:none;stroke-width:1.0;" width="34" x="334" y="422.8281"/><text fill="#000000" font-family="sans-serif" font-size="14" lengthAdjust="spacing" textLength="4" x="334" y="437.3613">&#160;</text><text fill="#000000" font-family="sans-serif" font-size="14" lengthAdjust="spacing" textLength="155" x="372" y="437.3613">Class that will be modeld</text><rect fill="#ADD8E6" height="17.6094" style="stroke:none;stroke-width:1.0;" width="34" x="334" y="440.4375"/><text fill="#000000" font-family="sans-serif" font-size="14" lengthAdjust="spacing" textLength="4" x="334" y="454.9707">&#160;</text><text fill="#000000" font-family="sans-serif" font-size="14" lengthAdjust="spacing" textLength="138" x="372" y="454.9707">Platform specific code</text><line style="stroke:#000000;stroke-width:1.0;" x1="334" x2="531" y1="387.6094" y2="387.6094"/><line style="stroke:#000000;stroke-width:1.0;" x1="334" x2="531" y1="405.2188" y2="405.2188"/><line style="stroke:#000000;stroke-width:1.0;" x1="334" x2="531" y1="422.8281" y2="422.8281"/><line style="stroke:#000000;stroke-width:1.0;" x1="334" x2="531" y1="440.4375" y2="440.4375"/><line style="stroke:#000000;stroke-width:1.0;" x1="334" x2="531" y1="458.0469" y2="458.0469"/><line style="stroke:#000000;stroke-width:1.0;" x1="334" x2="334" y1="387.6094" y2="458.0469"/><line style="stroke:#000000;stroke-width:1.0;" x1="368" x2="368" y1="387.6094" y2="458.0469"/><line style="stroke:#000000;stroke-width:1.0;" x1="531" x2="531" y1="387.6094" y2="458.0469"/><!--SRC=[XLF1Qjmm4BthAmRs42WaEFSIQ09RbYGai1jw7jkpQx6oPAHn5xVkltTaRMrdOr8V39fvcZVptYWSjMtGOms1EqFozxhWjZRg2iAOgvrrHULTJS2-9JLb2eCXV6EvbRTCcyBPhVv5aCqW1-_QPcChyfhH5WItIgdX7ZoZjh3go1XtWjzA_VcNs1At3QooRBtEidUPxyHlWVp6DYql0jwQ4fdMcaovN01hUlb9VZ5vlhRGqKwBEkyJLy2L3d3Ina1EWA0jaz-ZZCXEZhLh0u7emivABZPiT8w-KnDGndcEiFk4MZtfGyNtfgN4yJ-A8tMvy_n9zSU8G5ycWbTFCiibooLDWSPGY0nKQXQQaxQbZ5sZnGELa7SI4x8Pquy1iNFEVAm-kFpb-ZgvEXtdLaxHcNypwDaqfT9cE8aboDpkAJgQF0lD5-Vcfh-xq7uPi22VKeajzXMtudmSRamoA6NeGBO47zLG85__u8ppFUowXg1FeQ_dbRhhOSl8kaWlIjGV0MbD1V0mB29NoADJjIiZzuWTfHVugq7UEoylkw52xsDfGVTAcagjgRy0]--></g></svg>